<mxfile host="app.diagrams.net" agent="Mozilla/5.0 (Windows NT 10.0; Win64; x64) AppleWebKit/537.36 (KHTML, like Gecko) Chrome/138.0.0.0 Safari/537.36" version="27.2.0">
  <diagram name="Page-1" id="-5PCMbEA47v5Vgmdig3Y">
    <mxGraphModel dx="1426" dy="749" grid="1" gridSize="10" guides="1" tooltips="1" connect="1" arrows="1" fold="1" page="1" pageScale="1" pageWidth="827" pageHeight="1169" math="0" shadow="0">
      <root>
        <mxCell id="0" />
        <mxCell id="1" parent="0" />
        <mxCell id="Hi1ZLrbr8q2v-OZ9T-02-5" style="edgeStyle=orthogonalEdgeStyle;rounded=0;orthogonalLoop=1;jettySize=auto;html=1;exitX=1;exitY=0.5;exitDx=0;exitDy=0;entryX=0;entryY=0.5;entryDx=0;entryDy=0;" edge="1" parent="1" source="6kPvjrpUiPwS1ez4u8mN-2" target="Hi1ZLrbr8q2v-OZ9T-02-1">
          <mxGeometry relative="1" as="geometry" />
        </mxCell>
        <mxCell id="Hi1ZLrbr8q2v-OZ9T-02-11" value="flag" style="edgeLabel;html=1;align=center;verticalAlign=middle;resizable=0;points=[];" vertex="1" connectable="0" parent="Hi1ZLrbr8q2v-OZ9T-02-5">
          <mxGeometry x="-0.0444" y="3" relative="1" as="geometry">
            <mxPoint x="-3" y="-7" as="offset" />
          </mxGeometry>
        </mxCell>
        <mxCell id="6kPvjrpUiPwS1ez4u8mN-2" value="Reposo" style="ellipse;whiteSpace=wrap;html=1;" parent="1" vertex="1">
          <mxGeometry x="70" y="260" width="120" height="80" as="geometry" />
        </mxCell>
        <mxCell id="Hi1ZLrbr8q2v-OZ9T-02-6" style="edgeStyle=orthogonalEdgeStyle;rounded=0;orthogonalLoop=1;jettySize=auto;html=1;exitX=1;exitY=0.5;exitDx=0;exitDy=0;entryX=0;entryY=0.5;entryDx=0;entryDy=0;" edge="1" parent="1" source="Hi1ZLrbr8q2v-OZ9T-02-1" target="Hi1ZLrbr8q2v-OZ9T-02-3">
          <mxGeometry relative="1" as="geometry" />
        </mxCell>
        <mxCell id="Hi1ZLrbr8q2v-OZ9T-02-1" value="Inicio" style="ellipse;whiteSpace=wrap;html=1;" vertex="1" parent="1">
          <mxGeometry x="280" y="260" width="120" height="80" as="geometry" />
        </mxCell>
        <mxCell id="Hi1ZLrbr8q2v-OZ9T-02-17" style="edgeStyle=orthogonalEdgeStyle;rounded=0;orthogonalLoop=1;jettySize=auto;html=1;exitX=0.5;exitY=1;exitDx=0;exitDy=0;entryX=0.5;entryY=1;entryDx=0;entryDy=0;" edge="1" parent="1" source="Hi1ZLrbr8q2v-OZ9T-02-3" target="6kPvjrpUiPwS1ez4u8mN-2">
          <mxGeometry relative="1" as="geometry" />
        </mxCell>
        <mxCell id="Hi1ZLrbr8q2v-OZ9T-02-20" value="buffer[read_pos]==&#39;\0&lt;span style=&quot;background-color: light-dark(#ffffff, var(--ge-dark-color, #121212)); color: light-dark(rgb(0, 0, 0), rgb(255, 255, 255));&quot;&gt;&#39;&lt;/span&gt;" style="edgeLabel;html=1;align=center;verticalAlign=middle;resizable=0;points=[];" vertex="1" connectable="0" parent="Hi1ZLrbr8q2v-OZ9T-02-17">
          <mxGeometry x="-0.2304" y="1" relative="1" as="geometry">
            <mxPoint x="-43" y="9" as="offset" />
          </mxGeometry>
        </mxCell>
        <mxCell id="Hi1ZLrbr8q2v-OZ9T-02-18" style="edgeStyle=orthogonalEdgeStyle;rounded=0;orthogonalLoop=1;jettySize=auto;html=1;exitX=0.5;exitY=0;exitDx=0;exitDy=0;entryX=0.5;entryY=0;entryDx=0;entryDy=0;" edge="1" parent="1" source="Hi1ZLrbr8q2v-OZ9T-02-3" target="Hi1ZLrbr8q2v-OZ9T-02-1">
          <mxGeometry relative="1" as="geometry" />
        </mxCell>
        <mxCell id="Hi1ZLrbr8q2v-OZ9T-02-19" value="buffer[read_pos]!=&#39;\0&#39;" style="edgeLabel;html=1;align=center;verticalAlign=middle;resizable=0;points=[];" vertex="1" connectable="0" parent="Hi1ZLrbr8q2v-OZ9T-02-18">
          <mxGeometry x="-0.376" y="-3" relative="1" as="geometry">
            <mxPoint x="-32" y="-7" as="offset" />
          </mxGeometry>
        </mxCell>
        <mxCell id="Hi1ZLrbr8q2v-OZ9T-02-3" value="Espera" style="ellipse;whiteSpace=wrap;html=1;" vertex="1" parent="1">
          <mxGeometry x="490" y="260" width="120" height="80" as="geometry" />
        </mxCell>
      </root>
    </mxGraphModel>
  </diagram>
</mxfile>
